<svg width="18" height="19" viewBox="0 0 18 19" fill="none" xmlns="http://www.w3.org/2000/svg">
<path fill-rule="evenodd" clip-rule="evenodd" d="M2.3331 4.5C2.06942 4.50006 1.81168 4.57829 1.59246 4.72481C1.37324 4.87132 1.20238 5.07955 1.10148 5.32316C1.00059 5.56677 0.97418 5.83482 1.02561 6.09343C1.07703 6.35204 1.20398 6.58961 1.3904 6.77608L8.0573 13.443C8.30735 13.693 8.64644 13.8334 9 13.8334C9.35357 13.8334 9.69265 13.693 9.9427 13.443L16.6096 6.77608C16.796 6.58961 16.923 6.35204 16.9744 6.09343C17.0258 5.83482 16.9994 5.56677 16.8985 5.32316C16.7976 5.07955 16.6268 4.87132 16.4075 4.72481C16.1883 4.57829 15.9306 4.50006 15.6669 4.5H2.3331Z" fill="#BBDBFA"/>
</svg>
