<svg width="16" height="10" viewBox="0 0 16 10" fill="none" xmlns="http://www.w3.org/2000/svg">
<path fill-rule="evenodd" clip-rule="evenodd" d="M1.3331 0C1.06942 5.63011e-05 0.81168 0.078288 0.592459 0.224806C0.373238 0.371323 0.202379 0.579549 0.101482 0.823157C0.000585517 1.06677 -0.0258198 1.33482 0.0256055 1.59343C0.0770307 1.85204 0.203978 2.08961 0.390397 2.27608L7.0573 8.94298C7.30735 9.19295 7.64644 9.33338 8 9.33338C8.35357 9.33338 8.69265 9.19295 8.9427 8.94298L15.6096 2.27608C15.796 2.08961 15.923 1.85204 15.9744 1.59343C16.0258 1.33482 15.9994 1.06677 15.8985 0.823157C15.7976 0.579549 15.6268 0.371323 15.4075 0.224806C15.1883 0.078288 14.9306 5.63011e-05 14.6669 0H1.3331Z" fill="#BBDBFA"/>
</svg>
