<svg width="14" height="16" viewBox="0 0 14 16" fill="none" xmlns="http://www.w3.org/2000/svg">
<g clip-path="url(#clip0_1296_2210)">
<path d="M6.80078 6.802H6.80774V6.80896H6.80078V6.802Z" stroke="#BBDBFA" stroke-width="3" stroke-linejoin="round"/>
<path d="M6.80141 14.4541L10.6275 10.6281C11.3842 9.87133 11.8995 8.90722 12.1082 7.85764C12.317 6.80806 12.2098 5.72014 11.8003 4.73147C11.3908 3.74279 10.6972 2.89776 9.80746 2.30322C8.91766 1.70869 7.87155 1.39136 6.80141 1.39136C5.73127 1.39136 4.68516 1.70869 3.79537 2.30322C2.90557 2.89776 2.21206 3.74279 1.80252 4.73147C1.39299 5.72014 1.28582 6.80806 1.49458 7.85764C1.70333 8.90722 2.21864 9.87133 2.97532 10.6281L6.80141 14.4541Z" stroke="#BBDBFA" stroke-width="2" stroke-linejoin="round"/>
</g>
<defs>
<clipPath id="clip0_1296_2210">
<rect width="13.913" height="16" fill="white"/>
</clipPath>
</defs>
</svg>
