<?xml version="1.0" encoding="utf-8"?>
<!-- Generator: Adobe Illustrator 24.0.1, SVG Export Plug-In . SVG Version: 6.00 Build 0)  -->
<svg version="1.1" id="Layer_2" xmlns="http://www.w3.org/2000/svg" xmlns:xlink="http://www.w3.org/1999/xlink" x="0px" y="0px"
	 viewBox="0 0 1080 1080" style="enable-background:new 0 0 1080 1080;" xml:space="preserve">
<style type="text/css">
	.st0{fill:url(#SVGID_1_);stroke:#000000;stroke-miterlimit:10;}
</style>
<linearGradient id="SVGID_1_" gradientUnits="userSpaceOnUse" x1="187.0107" y1="546.1362" x2="974.3503" y2="546.1362">
	<stop  offset="0" style="stop-color:#020202"/>
	<stop  offset="1" style="stop-color:#000000"/>
</linearGradient>
<path class="st0" d="M192.5,290.5c14.46-78.97,94-147,94-147s201-144,440-40c129,90,127,139,111,229c-19,68,0.15-0.14,60,0
	c102,24,90,143,36,266s-111,183-209,258c-17,14-8,16-2,35s-3,135-3,135h-431c0,0-11-116-20-147s30.38-29.26,12-55
	c-30.83-43.18-76.5-232.19-82-293C192.94,470.07,179.5,361.5,192.5,290.5z"/>
</svg>
