<svg width="259" height="285" viewBox="0 0 259 285" fill="none" xmlns="http://www.w3.org/2000/svg">
<path d="M107.322 2C77.1932 2 48.4549 9.00003 29.2188 21.4679C16.9672 29.4087 5.69652 46.9952 5.07546 63.7639C5.05151 64.4105 4.6299 66.7626 4.45439 67.4903C-6.72963 113.863 23.8924 192.111 24.5835 203.4C22.0342 207.108 19.0213 207.34 17.6307 213.597" stroke="url(#paint0_linear_141_535)" stroke-width="3"/>
<path d="M169.389 284.458C168.584 284.653 167.773 284.158 167.579 283.353C167.384 282.548 167.879 281.737 168.684 281.542L169.389 284.458ZM196.57 269.751L197.983 270.255L197.859 270.603L197.588 270.853L196.57 269.751ZM202.639 209.89L202.164 208.467L202.229 208.445L202.295 208.43L202.639 209.89ZM245.452 164.697L246.776 165.4L245.452 164.697ZM256.814 120.43H255.314H256.814ZM201.48 211.744L199.981 211.802L201.48 211.744ZM168.684 281.542C174.944 280.027 181.036 277.392 185.906 274.816C190.808 272.224 194.349 269.76 195.553 268.648L197.588 270.853C196.101 272.226 192.292 274.833 187.309 277.468C182.294 280.12 175.964 282.867 169.389 284.458L168.684 281.542ZM244.127 163.993C248.821 155.16 255.314 142.498 255.314 120.43H258.314C258.314 143.207 251.57 156.38 246.776 165.4L244.127 163.993ZM255.314 120.43C255.314 111.716 251.677 104.286 246.696 98.4929C241.702 92.6862 235.417 88.5981 230.31 86.5995L231.403 83.8058C236.956 85.9788 243.65 90.3501 248.97 96.5369C254.302 102.737 258.314 110.836 258.314 120.43H255.314ZM202.295 208.43C203.978 208.034 207.653 206.259 212.03 203.187C216.356 200.151 221.211 195.957 225.276 190.875L227.619 192.75C223.34 198.097 218.261 202.479 213.753 205.642C209.297 208.77 205.239 210.819 202.982 211.35L202.295 208.43ZM225.276 190.875C233.633 180.429 238.415 174.742 244.127 163.993L246.776 165.4C240.911 176.437 235.948 182.338 227.619 192.75L225.276 190.875ZM195.158 269.246C195.23 269.045 195.393 268.267 195.621 266.824C195.838 265.452 196.093 263.619 196.37 261.442C196.923 257.089 197.559 251.388 198.144 245.294C199.317 233.072 200.274 219.39 199.981 211.802L202.979 211.686C203.281 219.503 202.301 233.375 201.13 245.581C200.542 251.7 199.904 257.432 199.346 261.82C199.067 264.013 198.808 265.878 198.585 267.292C198.372 268.635 198.17 269.732 197.983 270.255L195.158 269.246ZM199.981 211.802C199.951 211.019 200.119 210.276 200.548 209.654C200.977 209.032 201.574 208.664 202.164 208.467L203.113 211.313C203.008 211.348 203.005 211.375 203.018 211.356C203.031 211.337 202.968 211.405 202.979 211.686L199.981 211.802Z" fill="url(#paint1_linear_141_535)"/>
<path d="M214.402 120.429C223.672 104.438 224.464 83.3477 222.971 67.5879C220.885 45.5707 202.576 20.3088 189.366 13.356" stroke="url(#paint2_linear_141_535)" stroke-width="3" stroke-linecap="round"/>
<path d="M224.536 148.407C227.029 128.389 217.813 123.945 214.014 121.013C216.656 123.943 221.696 132.264 220.724 142.113" stroke="#BBDBFA"/>
<defs>
<linearGradient id="paint0_linear_141_535" x1="98.2834" y1="2.46351" x2="45.8517" y2="213.597" gradientUnits="userSpaceOnUse">
<stop stop-color="#D12D38" stop-opacity="0"/>
<stop offset="0.173851" stop-color="#D12D38"/>
<stop offset="1" stop-color="#D12D38" stop-opacity="0"/>
</linearGradient>
<linearGradient id="paint1_linear_141_535" x1="222.855" y1="93.3143" x2="222.655" y2="285.484" gradientUnits="userSpaceOnUse">
<stop stop-color="#BBDBFA" stop-opacity="0"/>
<stop offset="0.136141" stop-color="#BBDBFA" stop-opacity="0.6"/>
<stop offset="0.808042" stop-color="#BBDBFA" stop-opacity="0.6"/>
<stop offset="1" stop-color="#BBDBFA" stop-opacity="0"/>
</linearGradient>
<linearGradient id="paint2_linear_141_535" x1="174.07" y1="4.54905" x2="202.808" y2="107.914" gradientUnits="userSpaceOnUse">
<stop stop-color="#BBDBFA" stop-opacity="0"/>
<stop offset="0.805984" stop-color="#BBDBFA" stop-opacity="0.62"/>
<stop offset="1" stop-color="#BBDBFA"/>
</linearGradient>
</defs>
</svg>
