<svg width="24" height="24" viewBox="0 0 24 24" fill="none" xmlns="http://www.w3.org/2000/svg">
<g clip-path="url(#clip0_556_3574)">
<path d="M15.6281 8.26606C16.4609 8.33285 17.1104 8.56451 17.6139 8.94172C15.1629 11.2354 15.8174 14.9906 18.3181 16.6568C17.8267 17.7824 17.2256 18.7841 16.3765 19.5435L16.7381 19.9478L16.3571 19.5609C16.0338 19.8742 15.7488 19.9673 15.4837 19.98C15.1837 19.9945 14.8223 19.9086 14.3734 19.7125L14.3735 19.7124L14.3619 19.7076C13.0282 19.1447 11.7493 19.1211 10.3479 19.706L10.3479 19.706L10.3376 19.7104C9.69343 19.9878 9.34114 20.0224 9.12302 19.9921C8.9292 19.9652 8.71016 19.8694 8.37017 19.5612C6.12789 17.2382 5.22174 14.3607 5.45045 12.1139C5.56462 10.9923 5.95488 10.0692 6.54948 9.4238C7.12276 8.80156 7.93858 8.37829 9.0515 8.3105C9.55275 8.3438 9.99732 8.48273 10.4597 8.6518C10.5179 8.67311 10.5805 8.69671 10.6465 8.72165C11.0428 8.87122 11.5659 9.06867 12.0574 9.106L12.1961 9.11653L12.3324 9.08881C12.8304 8.98752 13.3504 8.8072 13.7893 8.65497C13.9357 8.6042 14.0731 8.55655 14.1976 8.51601C14.7522 8.33549 15.1979 8.2361 15.6281 8.26606ZM13.8411 5.46683C13.6455 5.65629 13.4371 5.81509 13.2313 5.94033C13.4917 5.29495 13.9792 4.74949 14.5857 4.39986C14.4178 4.7978 14.1583 5.15962 13.8411 5.46683Z" fill="#495057" stroke="#495057" stroke-width="2"/>
</g>
<defs>
<clipPath id="clip0_556_3574">
<rect width="24" height="24" fill="white"/>
</clipPath>
</defs>
</svg>
